<?xml version="1.0" encoding="UTF-8"?>
<svg version="1.1" xmlns="http://www.w3.org/2000/svg" width="1024" height="1024">
<path d="M0 0 C0.33 0.66 0.66 1.32 1 2 C1.64286593 1.97038465 2.28573186 1.94076929 2.94807857 1.91025651 C27.99734025 0.80833213 53.04038853 0.8558004 78.10919297 0.86927533 C84.42701898 0.87156492 90.74484238 0.86803198 97.06266785 0.86529541 C108.69926838 0.86112799 120.33586226 0.86145827 131.97246295 0.86420688 C142.75219547 0.86673984 153.5319261 0.86737118 164.31165886 0.86618423 C165.39153182 0.86606966 165.39153182 0.86606966 166.49322039 0.86595276 C169.41729362 0.86564131 172.34136684 0.8653229 175.26544007 0.864993 C202.64280423 0.86194137 230.02016509 0.8646934 257.39752873 0.8700899 C281.55058409 0.87481483 305.70363415 0.87442673 329.85668945 0.86962891 C357.13066165 0.86422898 384.40463093 0.86217753 411.67860359 0.86524117 C414.60891116 0.86556175 417.53921872 0.8658746 420.46952629 0.86618423 C421.19078255 0.86626331 421.9120388 0.86634239 422.65515131 0.86642386 C432.68048263 0.86747146 442.70581203 0.86658043 452.7311431 0.86419844 C571.37232351 0.83639586 571.37232351 0.83639586 628 2 C628.06849378 47.00619568 628.13217361 92.01239724 628.16937256 137.01863098 C628.1702009 138.01826226 628.1702009 138.01826226 628.17104598 139.03808811 C628.18301843 153.52224037 628.19409904 168.00639319 628.20426132 182.49054683 C628.20925054 189.59387705 628.21443677 196.69720711 628.21972656 203.80053711 C628.2202496 204.50739268 628.22077263 205.21424825 628.22131152 205.94252368 C628.2383479 228.84153538 628.26838639 251.74050753 628.30518888 274.63949527 C628.34294875 298.17699979 628.36754861 321.71448242 628.37565996 345.25201671 C628.38091363 360.41617029 628.39767543 375.5802078 628.43166587 390.7443249 C628.45281439 400.68588359 628.45919925 410.62738358 628.45400551 420.56896313 C628.4514443 426.30418119 628.45536261 432.0392008 628.4768219 437.77438354 C628.49634193 443.02975331 628.4972345 448.28479187 628.48359558 453.54017714 C628.48191085 455.43676866 628.48693855 457.33338117 628.49953273 459.22993162 C628.58453157 472.82546448 627.72726107 484.8603452 619.4375 496.25 C619.05142578 496.80300781 618.66535156 497.35601563 618.26757812 497.92578125 C616.27297084 500.6917273 615.30989476 501.89670175 612 503 C612 503.66 612 504.32 612 505 C598.39787198 517.44249959 582.61324881 517.72756532 565.31137085 517.62145996 C563.01699446 517.6257937 560.72262135 517.63231398 558.42825663 517.64082003 C552.15099746 517.65775981 545.87413911 517.64366617 539.59690118 517.62430525 C533.5142989 517.6104362 527.43177344 517.62014034 521.34916972 517.62911103 C508.15016837 517.64765619 494.95130241 517.63802125 481.75231214 517.61663339 C470.20774491 517.59805875 458.66322309 517.58965614 447.1186409 517.59120178 C445.96890101 517.5913393 445.96890101 517.5913393 444.79593404 517.59147959 C441.68440862 517.59187275 438.5728832 517.59232238 435.46135779 517.59285098 C406.29863687 517.59771771 377.13599656 517.57508541 347.97330068 517.53889475 C322.05786739 517.50687139 296.14250287 517.49485672 270.22705078 517.50097656 C268.56153986 517.50136341 266.89602895 517.50174986 265.23051803 517.50213593 C263.99542407 517.50242295 263.99542407 517.50242295 262.73537872 517.50271577 C258.59060128 517.50367009 254.44582383 517.50458446 250.30104637 517.50545502 C249.48335878 517.50562881 248.66567119 517.5058026 247.82320518 517.50598167 C226.16587471 517.51033376 204.50855167 517.50032987 182.85122645 517.48561716 C182.08118389 517.48509702 181.31114134 517.48457688 180.51776416 517.48404097 C179.74912451 517.48352163 178.98048486 517.48300229 178.1885531 517.4824672 C177.42131647 517.48194946 176.65407983 517.48143172 175.8635936 517.48089829 C174.31846826 517.47985021 172.77334293 517.47879 171.2282176 517.47771757 C160.44872785 517.47033174 149.66924861 517.46824968 138.88975664 517.46971158 C125.00739455 517.47155494 111.12509727 517.46352986 97.24275641 517.43807012 C90.54660536 517.42604579 83.85055181 517.41910494 77.15438461 517.42490768 C71.03222989 517.43005647 64.91025822 517.42147323 58.78813489 517.40163308 C56.56642925 517.39686972 54.34470593 517.39722306 52.12300281 517.40304345 C49.11681652 517.41016169 46.11124747 517.3990422 43.10510826 517.38311005 C42.23081081 517.38956185 41.35651335 517.39601365 40.45572203 517.40266097 C36.00545458 517.35800325 33.32617904 517.26884288 30 514 C28.43084968 513.22076209 26.84633649 512.47191013 25.25 511.75 C17.0936494 507.71980323 11.89046797 502.55985762 7.32421875 494.72265625 C6.88722656 494.15417969 6.45023438 493.58570313 6 493 C5.01 493 4.02 493 3 493 C2.86722656 492.25234375 2.73445312 491.5046875 2.59765625 490.734375 C2.42105469 489.74953125 2.24445313 488.7646875 2.0625 487.75 C1.88847656 486.77546875 1.71445313 485.8009375 1.53515625 484.796875 C1.06680474 482.14295719 1.06680474 482.14295719 0.48632812 480.1496582 C-0.07374384 477.67403891 -0.21372238 475.34499814 -0.31640625 472.80859375 C-0.35838135 471.78975098 -0.40035645 470.7709082 -0.44360352 469.72119141 C-0.48283936 468.63757324 -0.5220752 467.55395508 -0.5625 466.4375 C-0.6049585 465.32810059 -0.64741699 464.21870117 -0.69116211 463.07568359 C-1.03719117 453.37990763 -1.09551672 443.70025399 -1 434 C-1 430.6455296 -1.00139562 427.29106129 -1.00279331 423.93659115 C-1.00341719 422.42233211 -1.00404006 420.90807307 -1.0046621 419.39381403 C-1.0049976 418.58012448 -1.00533311 417.76643493 -1.00567878 416.92808812 C-1.02618274 366.91698792 -1.04137809 316.90588797 -1.05106533 266.89478448 C-1.05231604 260.46151321 -1.05361037 254.02824195 -1.05493164 247.5949707 C-1.05519395 246.31421809 -1.05545626 245.03346548 -1.05572652 243.71390218 C-1.06008482 222.94172634 -1.06797372 202.16955324 -1.0771528 181.39737903 C-1.08648923 160.09202078 -1.0920555 138.78666397 -1.09408849 117.48130375 C-1.09546349 104.32747522 -1.09981284 91.17365447 -1.10791647 78.01982833 C-1.11318379 69.01375892 -1.11480433 60.00769357 -1.11350138 51.00162273 C-1.11285803 45.79843912 -1.11387524 40.59526915 -1.11920547 35.39208794 C-1.12404253 30.63589204 -1.12433661 25.87971908 -1.12089889 21.12352217 C-1.12047351 19.39613096 -1.1217666 17.66873837 -1.12488318 15.94134992 C-1.12885297 13.60672716 -1.12675971 11.27218896 -1.12304783 8.93756771 C-1.12342755 7.6367532 -1.12380727 6.33593868 -1.1241985 4.99570554 C-1 2 -1 2 0 0 Z M334 55 C333.9768321 64.44893105 333.95906219 73.89785232 333.94818783 83.34680557 C333.94296875 87.73430637 333.93588876 92.12178773 333.92456055 96.50927734 C333.91369707 100.74325502 333.9077158 104.977214 333.90512276 109.21120453 C333.90327476 110.82673181 333.89966612 112.44225807 333.89426994 114.0577774 C333.88701363 116.3201163 333.886011 118.5823779 333.88647461 120.84472656 C333.884254 122.13268127 333.88203339 123.42063599 333.87974548 124.74761963 C333.97796346 127.40400395 334.29774556 129.47148648 335 132 C334.8453125 132.61488281 334.690625 133.22976563 334.53125 133.86328125 C333.81218167 136.75541636 334.18341129 139.23387123 334.5 142.1875 C334.7057666 144.12123838 334.88253529 146.05889566 335 148 C334.505 148.495 334.505 148.495 334 149 C333.90319959 151.05027739 333.87813057 153.10394879 333.87974548 155.1565094 C333.87889106 155.80664865 333.87803663 156.4567879 333.87715632 157.12662834 C333.87549974 159.3208558 333.88102575 161.51500802 333.88647461 163.70922852 C333.88675647 165.27585854 333.88659877 166.8424887 333.8860321 168.40911865 C333.88574408 172.67546377 333.89164157 176.94178102 333.89860606 181.20811963 C333.90483882 185.66177051 333.90544334 190.11542197 333.90663147 194.56907654 C333.90974502 203.00867443 333.91795872 211.44825944 333.92798096 219.88785166 C333.93914137 229.49349444 333.94465236 239.09913782 333.94967639 248.70478547 C333.96014132 268.46986578 333.97848709 288.23492841 334 308 C348.52 308 363.04 308 378 308 C379.21931078 304.34206767 379.08767313 301.02704232 379.02172852 297.22387695 C379.01212097 296.43339966 379.00251343 295.64292236 378.99261475 294.82849121 C378.95962676 292.21499723 378.91929365 289.6016705 378.87890625 286.98828125 C378.85460494 285.17653493 378.83076138 283.36478243 378.80735779 281.55302429 C378.74451798 276.78377225 378.67545099 272.01462981 378.60510254 267.2454834 C378.52199123 261.52366273 378.44658674 255.80173598 378.36989594 250.07982635 C378.25251285 241.38645511 378.12531892 232.6932768 378 224 C399.12 224 420.24 224 442 224 C442 223.67 442 223.34 442 223 C438.7 223 435.4 223 432 223 C432 222.34 432 221.68 432 221 C433.216875 221.165 434.43375 221.33 435.6875 221.5 C438.15429135 221.81490953 440.44283824 222 442.9375 222 C443.618125 222 444.29875 222 445 222 C445.33 222.33 445.66 222.66 446 223 C470.84438761 224.42822014 495.06671919 217.90586043 515 203 C514.67 201.02 514.34 199.04 514 197 C516.97 197.99 516.97 197.99 520 199 C521.14888283 197.87811441 522.29401137 196.75238316 523.4375 195.625 C524.07558594 194.99851562 524.71367188 194.37203125 525.37109375 193.7265625 C527.07882176 192.08276939 527.07882176 192.08276939 528 190 C528.91321029 188.68509278 529.8305037 187.37301921 530.75 186.0625 C543.13411994 167.42706593 545.20742587 146.73465469 543 125 C542.67 125 542.34 125 542 125 C541.67 126.32 541.34 127.64 541 129 C540.01 129 539.02 129 538 129 C538.66 127.02 539.32 125.04 540 123 C539.34 123 538.68 123 538 123 C538.66 121.02 539.32 119.04 540 117 C540.33 117.66 540.66 118.32 541 119 C540.52877252 112.0886636 537.79363994 106.27795839 535 100 C534.01 100 533.02 100 532 100 C532.33 99.01 532.66 98.02 533 97 C531.12802546 94.30566683 531.12802546 94.30566683 529 92 C528.01 92.33 527.02 92.66 526 93 C525.67 91.68 525.34 90.36 525 89 C524.67 89.66 524.34 90.32 524 91 C523.40267181 88.23735711 523 85.83967231 523 83 C522.34 83 521.68 83 521 83 C521 82.34 521 81.68 521 81 C518.98257423 78.52267474 516.7900302 76.56198602 514 75 C510.11608778 75.44055296 510.11608778 75.44055296 507 77 C507.33 75.02 507.66 73.04 508 71 C505.50968916 68.92474097 503.70910026 67.99350443 500.44140625 68.0234375 C497.94661777 68.28530182 495.47634651 68.60089949 493 69 C492.67 68.34 492.34 67.68 492 67 C491.01 66.505 491.01 66.505 490 66 C490 65.34 490 64.68 490 64 C490.66 63.67 491.32 63.34 492 63 C474.79614774 57.01208676 457.95072184 55.5474369 439.83984375 55.48828125 C437.83711211 55.47134648 435.83439052 55.45318533 433.8316803 55.43388367 C428.59206401 55.38679028 423.35248799 55.35678538 418.11273193 55.33044434 C412.88691221 55.30091142 407.6612523 55.2539493 402.43554688 55.20898438 C379.6238182 55.02093907 356.81243274 54.9501319 334 55 Z M92 55 C92 138.49 92 221.98 92 308 C107.18 308 122.36 308 138 308 C137.95617187 302.70195313 137.91234375 297.40390625 137.8671875 291.9453125 C137.8616912 288.57272289 137.8591551 285.20064347 137.8671875 281.828125 C137.87963648 276.48409039 137.88160259 271.14159644 137.81835938 265.79785156 C137.76800909 261.48527068 137.76699748 257.17515064 137.79904556 252.86242294 C137.80277376 251.22389262 137.78923745 249.58522202 137.75750351 247.94699478 C137.52626328 235.13345051 137.52626328 235.13345051 141.18536377 229.83636475 C143.67356047 227.34248969 146.23608742 225.1775632 149 223 C150.17760397 221.73723094 151.33118176 220.45066842 152.4375 219.125 C155.47391083 215.5813129 158.59580663 212.12609209 161.75 208.6875 C162.22236084 208.1713916 162.69472168 207.6552832 163.18139648 207.12353516 C165.40758034 204.6995302 167.645192 202.29986248 170 200 C170.69867188 200.91523438 171.39734375 201.83046875 172.1171875 202.7734375 C173.03638138 203.97401726 173.95565644 205.17453486 174.875 206.375 C175.33519531 206.97828125 175.79539062 207.5815625 176.26953125 208.203125 C178.09372941 210.58251391 179.87741212 212.87741212 182 215 C182.92882089 216.40060293 183.85655488 217.80194305 184.77783203 219.20751953 C187.17898931 222.72915292 189.83019859 226.0673767 192.4375 229.4375 C193.56231167 230.89367161 194.6860236 232.35069343 195.80859375 233.80859375 C196.34726074 234.50710449 196.88592773 235.20561523 197.44091797 235.92529297 C198.94554038 237.9275293 200.3684939 239.97016437 201.78515625 242.03515625 C202.88150391 243.50275391 202.88150391 243.50275391 204 245 C204.66 245 205.32 245 206 245 C206.10852295 245.58233398 206.2170459 246.16466797 206.32885742 246.76464844 C207.08534894 249.28426877 208.09953411 250.71660273 209.73828125 252.765625 C210.30514648 253.48274658 210.87201172 254.19986816 211.45605469 254.9387207 C212.06868164 255.70144287 212.68130859 256.46416504 213.3125 257.25 C214.59624373 258.87275593 215.87877394 260.49647252 217.16015625 262.12109375 C217.8061377 262.93819824 218.45211914 263.75530273 219.11767578 264.59716797 C221.88372066 268.12809063 224.57190428 271.71466315 227.25 275.3125 C234.25506211 284.82352561 234.25506211 284.82352561 241.62084961 294.05175781 C243 296 243 296 244.33422852 299.03417969 C246.36031927 302.87929887 248.18229641 305.86470693 252 308 C260.9335899 310.08538795 270.47585075 309.12009984 279.5625 308.75 C282.12292241 308.6897662 284.68348019 308.63502051 287.24414062 308.5859375 C293.49905963 308.4541097 299.74890199 308.25372028 306 308 C306.33 307.01 306.66 306.02 307 305 C305.67197851 302.7747315 305.67197851 302.7747315 303.75 300.5625 C303.12609375 299.80066406 302.5021875 299.03882813 301.859375 298.25390625 C301.24578125 297.51011719 300.6321875 296.76632812 300 296 C298.98992797 294.67428047 297.99158982 293.33959972 297 292 C296.10993012 290.80817898 295.21923485 289.6168249 294.328125 288.42578125 C293.83175537 287.76191406 293.33538574 287.09804688 292.82397461 286.4140625 C290.70360467 283.58295587 288.57540733 280.7577637 286.44775391 277.93212891 C285.20887256 276.27875505 283.98386253 274.61500285 282.76171875 272.94921875 C282.15972656 272.14097656 281.55773437 271.33273437 280.9375 270.5 C280.43089844 269.8090625 279.92429687 269.118125 279.40234375 268.40625 C278.93957031 267.9421875 278.47679687 267.478125 278 267 C277.01 267 276.02 267 275 267 C275.33 266.01 275.66 265.02 276 264 C274.7308155 261.73482597 274.7308155 261.73482597 272.80859375 259.39453125 C272.11056641 258.49283203 271.41253906 257.59113281 270.69335938 256.66210938 C269.94892578 255.72173828 269.20449219 254.78136719 268.4375 253.8125 C266.99852663 251.96497714 265.55972208 250.11732279 264.12109375 248.26953125 C263.42097168 247.38217285 262.72084961 246.49481445 261.99951172 245.58056641 C259.67213842 242.57686241 257.46974857 239.49509256 255.30883789 236.36987305 C254.87692139 235.91781494 254.44500488 235.46575684 254 235 C253.01 235 252.02 235 251 235 C250.938125 234.13375 250.87625 233.2675 250.8125 232.375 C249.76877344 228.03952044 248.00721829 226.23854277 245 223 C244.01 223.33 243.02 223.66 242 224 C242.33 223.01 242.66 222.02 243 221 C241.76616905 218.83914633 240.49270525 216.97968341 239 215 C238.44795898 214.25991699 237.89591797 213.51983398 237.32714844 212.75732422 C235.35729579 210.1396158 233.36855307 207.53719939 231.375 204.9375 C230.66657959 204.01098633 229.95815918 203.08447266 229.22827148 202.12988281 C227.15410741 199.41844003 225.07733722 196.70901208 223 194 C221.92053837 192.58987019 220.84110739 191.17971692 219.76171875 189.76953125 C216.08488369 184.70620953 216.08488369 184.70620953 212 180 C211.05051511 178.61229132 210.11531367 177.21479053 209.1875 175.8125 C208.68605469 175.05582031 208.18460937 174.29914063 207.66796875 173.51953125 C207.11753906 172.68808594 206.56710937 171.85664063 206 171 C204.66721302 168.99963588 203.33400104 166.9995547 202 165 C202.47945068 164.50072998 202.95890137 164.00145996 203.45288086 163.48706055 C205.61946255 161.22530806 207.77853478 158.95652292 209.9375 156.6875 C210.69224609 155.90181641 211.44699219 155.11613281 212.22460938 154.30664062 C212.94326172 153.54931641 213.66191406 152.79199219 214.40234375 152.01171875 C215.06741943 151.31522217 215.73249512 150.61872559 216.41772461 149.90112305 C218.20679471 147.98598686 218.20679471 147.98598686 219 145 C219.66 145 220.32 145 221 145 C222.50273886 143.55316948 222.50273886 143.55316948 224.0625 141.625 C226.82817409 138.37058933 229.63308192 135.16586167 232.5 132 C235.15113994 129.06321535 237.78290171 126.11397458 240.375 123.125 C243.37801853 119.6739787 246.46333151 116.30197099 249.5625 112.9375 C252.91804602 109.2943197 256.21957898 105.62130815 259.4140625 101.8359375 C262.38922485 98.39178404 265.48656618 95.05650809 268.5546875 91.6953125 C271.14000664 88.84567958 273.67756767 85.96004142 276.1953125 83.05078125 C277.58761861 81.46861521 279.00380046 79.90743905 280.4296875 78.35546875 C281.67105469 77.00388672 281.67105469 77.00388672 282.9375 75.625 C283.70964844 74.79226563 284.48179687 73.95953125 285.27734375 73.1015625 C287.21131402 71.19510178 287.21131402 71.19510178 287 69 C287.66 69 288.32 69 289 69 C292.91327696 65.28054101 296.51460715 61.28139679 298 56 C292.63189391 55.10204604 287.46847918 54.85334302 282.03125 54.8671875 C280.77254089 54.86575241 280.77254089 54.86575241 279.48840332 54.86428833 C277.72355066 54.86361128 275.95869545 54.86543227 274.19384766 54.86962891 C271.50808057 54.87498389 268.8224807 54.86966773 266.13671875 54.86328125 C264.41406213 54.86394212 262.69140562 54.86522345 260.96875 54.8671875 C259.77626648 54.86415115 259.77626648 54.86415115 258.55969238 54.86105347 C250.17680368 54.5789427 250.17680368 54.5789427 242.83984375 57.7578125 C242.21207031 58.53898437 241.58429688 59.32015625 240.9375 60.125 C240.18597656 61.0221875 239.43445313 61.919375 238.66015625 62.84375 C238.24523926 63.34390625 237.83032227 63.8440625 237.40283203 64.359375 C234.67374722 67.55106485 231.75736444 70.5723261 228.875 73.625 C224.7849529 77.98656988 220.7403023 82.36648888 216.84765625 86.90625 C215.27769745 88.68531536 213.68007736 90.42449941 212.05859375 92.15625 C211.25832764 93.01259033 211.25832764 93.01259033 210.44189453 93.88623047 C209.38534306 95.01370419 208.32532177 96.13794025 207.26123047 97.25830078 C204.09956612 100.63522738 201.54392336 104.11981799 199 108 C197.68441297 109.02323436 196.35622245 110.03126968 195 111 C195 111.66 195 112.32 195 113 C194.34 113 193.68 113 193 113 C191.59937273 114.34595571 191.59937273 114.34595571 190.125 116.1875 C186.91793427 119.96012712 183.61750568 123.62146823 180.25 127.25 C179.20959327 128.37365889 178.1692291 129.49735719 177.12890625 130.62109375 C176.6095752 131.1816748 176.09024414 131.74225586 175.55517578 132.31982422 C167.51789881 140.97327168 167.51789881 140.97327168 159.6875 149.8125 C156.15994195 153.88209746 152.48628934 157.81289029 148.8125 161.75 C148.20559326 162.40073486 147.59868652 163.05146973 146.97338867 163.72192383 C144.03007065 166.86702287 141.04994042 169.95768425 138 173 C138.00092179 172.39793511 138.00184359 171.79587023 138.00279331 171.17556095 C138.0248491 156.54607623 138.04141182 141.91659249 138.05181217 127.28709507 C138.056975 120.21246813 138.06401744 113.13785226 138.07543945 106.06323242 C138.08644681 99.24221122 138.09227618 92.42120156 138.09487724 85.60017204 C138.09673205 82.99133052 138.1003537 80.38248967 138.10573006 77.77365303 C138.11293643 74.13367448 138.11399111 70.49374425 138.11352539 66.85375977 C138.1189183 65.21809807 138.1189183 65.21809807 138.12442017 63.5493927 C138.1230455 62.56356201 138.12167084 61.57773132 138.12025452 60.56202698 C138.12117631 59.70015054 138.1220981 58.8382741 138.12304783 57.95028019 C138.21545822 55.9950652 138.21545822 55.9950652 137 55 C122.15 55 107.3 55 92 55 Z M508 72 C509 76 509 76 509 76 Z M541 120 C542 123 542 123 542 123 Z M540 125 C541 128 541 128 541 128 Z M379 226 C380 229 380 229 380 229 Z M379 230 C379 232.31 379 234.62 379 237 C379.33 237 379.66 237 380 237 C380 234.69 380 232.38 380 230 C379.67 230 379.34 230 379 230 Z M379 238 C379 242.95 379 247.9 379 253 C379.33 253 379.66 253 380 253 C380 248.05 380 243.1 380 238 C379.67 238 379.34 238 379 238 Z M379 254 C380 257 380 257 380 257 Z M379 262 C380 265 380 265 380 265 Z M379 267 C380 269 380 269 380 269 Z M425.29136658 271.2401886 C422.28585907 275.33594768 423.75144306 281.36330826 424.47067261 286.09927368 C425.12236786 289.57576855 425.84347866 293.03088863 426.58984375 296.48828125 C426.85382462 297.74964401 427.11780548 299.01100677 427.38978577 300.31059265 C428.08587138 303.63623575 428.79380457 306.95924261 429.50445557 310.28179932 C430.22561508 313.66357495 430.93563252 317.04768615 431.64648438 320.43164062 C432.8967424 326.37771745 434.15675612 332.32167201 435.42417908 338.26411438 C435.96626501 340.83971565 436.48518054 343.41883075 437 346 C437.51524834 348.50864197 438.03200375 351.01693991 438.55053711 353.52490234 C438.70352768 354.26541336 438.85651825 355.00592438 439.0141449 355.76887512 C440.41942308 362.56860685 441.82770478 369.36771697 443.23692989 376.1666317 C444.18212609 380.72699671 445.1263119 385.28756579 446.06811523 389.84863281 C446.98118444 394.27041633 447.89683189 398.69165875 448.81427193 403.11253738 C449.16242324 404.79237811 449.509668 406.47240699 449.85597038 408.15262985 C450.34154256 410.50770706 450.83042681 412.86207457 451.32006836 415.21630859 C451.53134369 416.24678566 451.53134369 416.24678566 451.74688721 417.29808044 C452.64647903 421.60169175 453.74933039 425.78893968 455 430 C455.66 430 456.32 430 457 430 C457.33 431.32 457.66 432.64 458 434 C461.28696233 434.79953138 462.71023192 435.09658936 466 434 C467.85317217 431.64114196 469.56292986 429.28659115 471.25 426.8125 C471.76143555 426.07523682 472.27287109 425.33797363 472.79980469 424.57836914 C474.54280196 422.05871431 476.27227283 419.53014822 478 417 C478.66902344 416.02321289 479.33804688 415.04642578 480.02734375 414.04003906 C484.36628339 407.7033288 488.68976494 401.3562664 493 395 C496.99947047 399.76553819 500.39903808 404.91264559 503.875 410.0625 C509.5947886 418.49895946 515.38137151 426.88330524 521.25537109 435.21313477 C524.50873774 439.83487231 527.66483636 444.49994415 530.71850586 449.2565918 C531.89817466 451.1390088 531.89817466 451.1390088 534 452 C541.408557 452.7408557 546.11280267 450.08861083 551.9375 445.875 C554.85024779 443.22704746 554.9661905 442.33246007 555.375 438.3125 C555.34595357 433.00668495 552.70441672 429.70441672 549 426 C547.96679519 424.40377344 546.94877571 422.79770894 545.9375 421.1875 C544.99970703 419.71410156 544.99970703 419.71410156 544.04296875 418.2109375 C543.00398554 416.57796581 541.96531687 414.94476803 540.93603516 413.30566406 C539.88421517 411.63481665 538.81724569 409.97353673 537.75 408.3125 C537.10546875 407.29800781 536.4609375 406.28351563 535.796875 405.23828125 C535.20390625 404.49964844 534.6109375 403.76101563 534 403 C533.01 403 532.02 403 531 403 C531.33 402.01 531.66 401.02 532 400 C530.57321003 397.59312573 530.57321003 397.59312573 528.5 395.0625 C524.05325232 389.3928967 520.5616809 383.25637368 517 377 C517.54013229 376.91674469 518.08026459 376.83348938 518.63676453 376.74771118 C524.26702777 375.87867195 529.89594929 375.00130962 535.52416992 374.11914062 C537.62377311 373.79116371 539.72370725 373.4652981 541.82397461 373.14160156 C544.84578873 372.67549728 547.86632456 372.20177022 550.88671875 371.7265625 C551.82335861 371.58376862 552.75999847 371.44097473 553.72502136 371.29385376 C558.058365 370.60490592 562.00207124 369.90934933 566 368 C566.94271002 364.74360341 566.94271002 364.74360341 567 361 C563.7348137 356.33544814 558.68535168 353.78390553 553.90234375 350.82421875 C550.31118065 348.56705432 546.86361394 346.13718253 543.40234375 343.6875 C539.64997171 341.05168744 535.8234766 338.53093849 532 336 C531.28199219 335.51789063 530.56398438 335.03578125 529.82421875 334.5390625 C524.89766296 331.23135719 519.91224799 328.0368298 514.87109375 324.90625 C512.59025199 323.3918952 510.4188107 321.8337461 508.23828125 320.18359375 C503.82810425 316.84641578 499.32115847 313.67469706 494.75 310.5625 C493.96109375 310.00884766 493.1721875 309.45519531 492.359375 308.88476562 C491.59625 308.36720703 490.833125 307.84964844 490.046875 307.31640625 C489.36463867 306.84662354 488.68240234 306.37684082 487.97949219 305.89282227 C485.55101974 304.79749373 484.45307468 305.09466598 482 306 C482.33 305.01 482.66 304.02 483 303 C482.36723145 302.5781543 481.73446289 302.15630859 481.08251953 301.72167969 C479.18096454 300.45397636 477.27943714 299.18623166 475.37792969 297.91845703 C473.19909328 296.46600845 471.02005492 295.01386278 468.84082031 293.56201172 C463.73555514 290.16025496 458.63211755 286.75596664 453.5390625 283.3359375 C452.72421387 282.78969727 451.90936523 282.24345703 451.06982422 281.68066406 C449.55716129 280.66627886 448.04570734 279.65008777 446.53564453 278.63183594 C445.85872559 278.1784082 445.18180664 277.72498047 444.484375 277.2578125 C443.90397461 276.8673877 443.32357422 276.47696289 442.72558594 276.07470703 C440.84893661 274.90591666 439.04240888 273.85283381 437 273 C436.01 273.495 436.01 273.495 435 274 C434.67 272.68 434.34 271.36 434 270 C429.3820171 269.53432296 429.3820171 269.53432296 425.29136658 271.2401886 Z M379 275 C380 277 380 277 380 277 Z M379 278 C380 281 380 281 380 281 Z M379 282 C380 284 380 284 380 284 Z M379 286 C379 288.31 379 290.62 379 293 C379.33 293 379.66 293 380 293 C380 290.69 380 288.38 380 286 C379.67 286 379.34 286 379 286 Z M379 295 C379 296.98 379 298.96 379 301 C379.33 301 379.66 301 380 301 C380 299.02 380 297.04 380 295 C379.67 295 379.34 295 379 295 Z M379 302 C380 305 380 305 380 305 Z M307 306 C307 306.66 307 307.32 307 308 C307.66 307.67 308.32 307.34 309 307 C308.34 306.67 307.68 306.34 307 306 Z M379 306 C380 308 380 308 380 308 Z " fill="#191919" transform="translate(198,299)"/>
<path d="M0 0 C1.09713192 0.16265854 2.19426384 0.32531708 3.32464218 0.49290466 C8.49013317 1.1339153 13.60685655 1.13248789 18.8057251 1.11352539 C20.40433022 1.11374868 20.40433022 1.11374868 22.0352304 1.11397648 C25.59414532 1.11328388 29.15300815 1.10545028 32.71191406 1.09765625 C35.26814749 1.09573648 37.8243813 1.09427296 40.38061523 1.0932312 C45.87859078 1.09007306 51.37655012 1.08392215 56.87451935 1.07516479 C64.82791979 1.06258941 72.78131526 1.05652924 80.73472401 1.05223143 C93.64574445 1.04517172 106.55675859 1.03437465 119.46777344 1.02050781 C120.23976002 1.01968 121.01174661 1.01885219 121.80712673 1.01799929 C127.2880846 1.01209766 132.76904231 1.00606275 138.25 1 C144.51790354 0.99306911 150.78580715 0.98620281 157.05371094 0.97949219 C158.21209411 0.97825 158.21209411 0.97825 159.39387897 0.97698271 C172.26273095 0.96330473 185.13158304 0.95354208 198.00044036 0.94658184 C205.9362949 0.94209864 213.87213084 0.93405446 221.80797669 0.92143703 C227.88183154 0.91202843 233.95567892 0.90766947 240.02954102 0.9051857 C242.5241083 0.90330826 245.01867495 0.89969662 247.513237 0.89425278 C250.90957631 0.88707232 254.3058639 0.88599742 257.70220947 0.88647461 C258.69674771 0.88287965 259.69128594 0.87928469 260.71596169 0.87558079 C261.62467515 0.87695514 262.5333886 0.87832949 263.46963882 0.87974548 C264.25360165 0.87882369 265.03756447 0.8779019 265.84528375 0.87695217 C268.01418273 1.00080992 269.91602004 1.40220431 272 2 C272.33 1.34 272.66 0.68 273 0 C274.19844292 0.24447876 274.19844292 0.24447876 275.4210968 0.49389648 C279.73702456 1.10422487 283.91064062 1.12402338 288.26245117 1.09765625 C289.63179054 1.09546585 289.63179054 1.09546585 291.02879333 1.0932312 C293.00290153 1.08943715 294.97700636 1.08333326 296.9511013 1.07516479 C300.07347164 1.06237506 303.1957994 1.05587927 306.31819153 1.05102539 C312.94131352 1.03961368 319.56440026 1.0203585 326.1875 1 C333.87296101 0.97641688 341.55840214 0.95603021 349.24389076 0.94406128 C352.32336213 0.9375677 355.40277241 0.92506224 358.48222351 0.91235352 C360.3633926 0.90872218 362.24456226 0.9053703 364.12573242 0.90234375 C364.98448975 0.89717743 365.84324707 0.89201111 366.72802734 0.88668823 C370.07471889 0.88638822 372.80224334 0.93408111 376 2 C376.33 1.34 376.66 0.68 377 0 C377.66 0.33 378.32 0.66 379 1 C381.46650464 1.04709317 383.90995344 1.04171792 386.375 1 C404.9294753 0.9109352 419.21076567 3.51667394 432.95703125 16.90625 C453.94725345 39.22265182 446.48132383 69.4354581 447 99 C239.43 99.33 31.86 99.66 -182 100 C-183.28213228 97.43573544 -183.1020264 95.66115412 -183.06933594 92.79101562 C-183.05892273 91.70228149 -183.04850952 90.61354736 -183.03778076 89.49182129 C-183.01134491 87.7169635 -183.01134491 87.7169635 -182.984375 85.90625 C-182.96787903 84.68981812 -182.95138306 83.47338623 -182.93438721 82.22009277 C-182.89681858 79.63757015 -182.85626391 77.05508954 -182.81298828 74.47265625 C-182.75070271 70.54431997 -182.70897409 66.61610805 -182.66796875 62.6875 C-182.62887974 60.17706315 -182.58855382 57.66664519 -182.546875 55.15625 C-182.53734802 53.98920532 -182.52782104 52.82216064 -182.51800537 51.61975098 C-182.32343234 42.20500388 -180.66050852 34.2507696 -175.875 26.0625 C-174.29538366 23.33157125 -172.99961143 20.9988343 -172 18 C-170.34634594 16.97862543 -168.67623498 15.98387706 -167 15 C-165.88180571 14.03688375 -164.77859071 13.05621648 -163.6875 12.0625 C-154.40052952 3.95896636 -143.16635595 1.5700055 -131.14819336 1.32080078 C-130.01561316 1.28771379 -128.88303297 1.25462681 -127.71613216 1.22053719 C-115.02228256 0.88236689 -102.3263813 0.85490836 -89.62890625 0.8671875 C-87.11734508 0.86651153 -84.60578397 0.86553909 -82.09422302 0.86428833 C-76.895247 0.86283136 -71.69628841 0.86490465 -66.49731445 0.86962891 C-60.49607057 0.87481685 -54.49487031 0.87325417 -48.49362999 0.8678025 C-42.66940905 0.86272563 -36.84520091 0.86325016 -31.02097893 0.86618423 C-28.55892876 0.866851 -26.09687772 0.86603381 -23.63482857 0.86370468 C-20.22080272 0.8611769 -16.80684315 0.86501743 -13.39282227 0.87060547 C-11.87129547 0.86756912 -11.87129547 0.86756912 -10.31903076 0.86447144 C-9.39326736 0.86729126 -8.46750397 0.87011108 -7.51368713 0.87301636 C-6.70954659 0.87339338 -5.90540606 0.87377041 -5.07689762 0.87415886 C-3 1 -3 1 0 2 C0 1.34 0 0.68 0 0 Z " fill="#191919" transform="translate(380,182)"/>
<path d="M0 0 C0.33 0.66 0.66 1.32 1 2 C1.99 2 2.98 2 4 2 C4.33 2.66 4.66 3.32 5 4 C7.64 4 10.28 4 13 4 C13.33 3.34 13.66 2.68 14 2 C15.093125 2.185625 16.18625 2.37125 17.3125 2.5625 C20.93624133 3.2578068 20.93624133 3.2578068 24 2 C24 2.66 24 3.32 24 4 C24.845625 3.814375 25.69125 3.62875 26.5625 3.4375 C30.2773282 2.96470368 33.32974273 3.33935369 37 4 C37 3.34 37 2.68 37 2 C37.99 1.67 38.98 1.34 40 1 C40.66 1.66 41.32 2.32 42 3 C42 2.67 42 2.34 42 2 C43.98 2 45.96 2 48 2 C48 2.66 48 3.32 48 4 C48.53625 3.67 49.0725 3.34 49.625 3 C52.54656843 1.76986593 54.85880271 1.86039123 58 2 C60.02450921 2 62.02400526 1.40533225 64 1 C64 1.99 64 2.98 64 4 C65.32451172 4.05607422 65.32451172 4.05607422 66.67578125 4.11328125 C73.66838313 4.49633463 79.947684 5.32944668 86.64453125 7.3671875 C89.48336643 8.12985964 92.075471 8.23712397 95 8 C94.34 8.66 93.68 9.32 93 10 C93.74443359 10.51046875 93.74443359 10.51046875 94.50390625 11.03125 C103.92505327 17.75297919 112.31916988 26.95308202 114.71484375 38.65234375 C116.17062041 50.63757349 115.13246748 61.75703809 107.8125 71.6875 C106.5860935 73.18713124 105.36896283 74.63103717 104 76 C104.66 76.66 105.32 77.32 106 78 C102.25 80 102.25 80 100 80 C98.8316777 80.71446276 97.68955881 81.47207168 96.5625 82.25 C87.02791945 88.37440211 76.99679549 90.10284121 65.90234375 90.55859375 C64.8975145 90.60084579 63.89268524 90.64309784 62.85740662 90.68663025 C50.42766373 91.16054623 37.99905685 91.10866779 25.5625 91.0625 C23.16211033 91.05746637 20.76171961 91.05290682 18.36132812 91.04882812 C12.57419537 91.03798979 6.78710285 91.02140441 1 91 C1 91.66 1 92.32 1 93 C0.01 92.67 -0.98 92.34 -2 92 C-2.33 91.01 -2.66 90.02 -3 89 C-2.505 88.505 -2.505 88.505 -2 88 C-2.33 88 -2.66 88 -3 88 C-3.06956183 77.41219451 -3.12284274 66.82444353 -3.15543652 56.23645592 C-3.17108123 51.3198272 -3.19229776 46.40335503 -3.22631836 41.48681641 C-3.2589543 36.74059132 -3.27686201 31.99451667 -3.28463173 27.24818802 C-3.29016762 25.4389166 -3.30097792 23.62965326 -3.31719017 21.82044601 C-3.33902083 19.28294949 -3.34196459 16.74607168 -3.34057617 14.20849609 C-3.351362 13.46330719 -3.36214783 12.71811829 -3.3732605 11.9503479 C-3.34536672 7.22781889 -2.40898061 4.05153405 0 0 Z M-2 9 C-2 13.95 -2 18.9 -2 24 C-1.67 24 -1.34 24 -1 24 C-1 19.05 -1 14.1 -1 9 C-1.33 9 -1.66 9 -2 9 Z M-2 25 C-2 27.31 -2 29.62 -2 32 C-1.67 32 -1.34 32 -1 32 C-1 29.69 -1 27.38 -1 25 C-1.33 25 -1.66 25 -2 25 Z M-2 33 C-1 37 -1 37 -1 37 Z M-2 38 C-1 40 -1 40 -1 40 Z M-2 43 C-2 44.65 -2 46.3 -2 48 C-1.67 48 -1.34 48 -1 48 C-1 46.35 -1 44.7 -1 43 C-1.33 43 -1.66 43 -2 43 Z M-2 57 C-2 59.31 -2 61.62 -2 64 C-1.67 64 -1.34 64 -1 64 C-1 61.69 -1 59.38 -1 57 C-1.33 57 -1.66 57 -2 57 Z M-2 65 C-2 67.31 -2 69.62 -2 72 C-1.67 72 -1.34 72 -1 72 C-1 69.69 -1 67.38 -1 65 C-1.33 65 -1.66 65 -2 65 Z " fill="#191919" transform="translate(579,392)"/>
<path d="M0 0 C1.28630068 0.95435136 2.57118567 1.91061103 3.85546875 2.86767578 C4.57114014 3.3999881 5.28681152 3.93230042 6.02416992 4.48074341 C9.33281659 7.02483023 12.11856887 9.99850924 15 13 C10.24863726 18.71700538 5.15385413 23.97689423 -0.1171875 29.21484375 C-0.97434357 30.07058487 -1.83149963 30.92632599 -2.71463013 31.80799866 C-5.43239954 34.52020465 -8.15363891 37.2288983 -10.875 39.9375 C-12.72679342 41.78427369 -14.57835834 43.63127653 -16.4296875 45.47851562 C-20.95048435 49.98833201 -25.47412946 54.49527569 -30 59 C-28.54131246 62.35999018 -26.69131052 64.55203106 -24.10107422 67.12597656 C-23.3003952 67.92650452 -22.49971619 68.72703247 -21.67477417 69.55181885 C-20.37783127 70.83327789 -20.37783127 70.83327789 -19.0546875 72.140625 C-18.1696756 73.02280701 -17.2846637 73.90498901 -16.37283325 74.81390381 C-14.02549869 77.15194543 -11.67393215 79.48555874 -9.32019043 81.81713867 C-6.91686073 84.19996526 -4.51922233 86.58850348 -2.12109375 88.9765625 C2.58071467 93.65631862 7.28818664 98.33031867 12 103 C11.0449028 104.12120157 10.08882049 105.24156401 9.13232422 106.36157227 C8.6000119 106.98556412 8.06769958 107.60955597 7.51925659 108.25245667 C4.84111179 111.33302523 1.91290921 114.14534898 -1 117 C-5.89192005 112.89995293 -10.48448713 108.64050072 -14.96484375 104.09765625 C-15.60184708 103.4568663 -16.2388504 102.81607635 -16.89515686 102.15586853 C-19.58850745 99.4463554 -22.27581685 96.73088051 -24.96362305 94.01586914 C-26.94107086 92.02017609 -28.92163972 90.02761678 -30.90234375 88.03515625 C-31.49530746 87.4338942 -32.08827118 86.83263214 -32.69920349 86.21315002 C-36.37807208 82.51323605 -40.18318846 79.02342021 -44.14552307 75.62838745 C-47.23686724 72.91392604 -50.11418071 69.99204383 -53 67.0625 C-53.87591797 66.17981445 -53.87591797 66.17981445 -54.76953125 65.27929688 C-56.18204805 63.85520207 -57.5913781 62.4279475 -59 61 C-57.39140496 56.98428745 -54.56359635 54.29520386 -51.54052734 51.31347656 C-50.98428177 50.75693893 -50.42803619 50.20040131 -49.85493469 49.6269989 C-48.01997095 47.79342558 -46.17803069 45.96703328 -44.3359375 44.140625 C-43.06040611 42.86882475 -41.78531633 41.59658147 -40.51065063 40.32391357 C-37.15804605 36.97893742 -33.79947827 33.64001149 -30.43963623 30.30230713 C-27.01082544 26.89397169 -23.58768427 23.47995255 -20.1640625 20.06640625 C-13.44824728 13.37202703 -6.72611906 6.68402534 0 0 Z " fill="#869788" transform="translate(408,659)"/>
<path d="M0 0 C2.88793985 1.30850636 4.95350175 2.70446481 7.1887207 4.94580078 C7.78646805 5.5404715 8.38421539 6.13514221 9.00007629 6.74783325 C9.95330025 7.71183548 9.95330025 7.71183548 10.92578125 8.6953125 C11.59159714 9.36158661 12.25741302 10.02786072 12.94340515 10.71432495 C14.35193182 12.12587061 15.75802933 13.53984381 17.16186523 14.95605469 C19.28911149 17.10141236 21.42410443 19.23880434 23.56054688 21.375 C24.93276149 22.75213618 26.30452063 24.1297264 27.67578125 25.5078125 C28.30519119 26.13833527 28.93460114 26.76885803 29.58308411 27.41848755 C33.35402998 31.22905451 36.93115099 35.15960398 40.43769836 39.21432495 C42.27766632 41.31736625 44.19972885 43.31378068 46.18359375 45.28125 C46.88291016 45.97734375 47.58222656 46.6734375 48.30273438 47.390625 C49.00720703 48.08671875 49.71167969 48.7828125 50.4375 49.5 C51.16904297 50.22703125 51.90058594 50.9540625 52.65429688 51.703125 C54.43389949 53.47109623 56.21626446 55.23620179 58 57 C52.50280742 63.69529866 46.39046848 69.73696491 40.2578125 75.83984375 C39.12273594 76.97305199 37.98788237 78.10648362 36.85324097 79.24012756 C33.88649256 82.20308335 30.91675198 85.16302193 27.9463501 88.12231445 C24.9077114 91.15066856 21.87195091 94.18190499 18.8359375 97.21289062 C12.8934174 103.14473089 6.947729 109.07338261 1 115 C-0.12120157 114.0449028 -1.24156401 113.08882049 -2.36157227 112.13232422 C-3.29756004 111.33385574 -3.29756004 111.33385574 -4.25245667 110.51925659 C-7.33302523 107.84111179 -10.14534898 104.91290921 -13 102 C-8.37508621 96.44560076 -3.44639036 91.31474331 1.6796875 86.22265625 C2.49245148 85.41130722 3.30521545 84.59995819 4.14260864 83.76402283 C6.71771738 81.1944741 9.2962962 78.62844032 11.875 76.0625 C13.63043946 74.31208071 15.38565017 72.561432 17.140625 70.81054688 C21.42444082 66.53770698 25.71110472 62.26774101 30 58 C25.81486568 53.00083362 21.44745716 48.32399299 16.80859375 43.74609375 C16.14086441 43.08215103 15.47313507 42.41820831 14.78517151 41.73414612 C12.67171326 39.63279716 10.55503439 37.53474085 8.4375 35.4375 C5.64158486 32.66831263 2.84908889 29.89574159 0.05859375 27.12109375 C-0.57486465 26.49593369 -1.20832306 25.87077362 -1.86097717 25.22666931 C-5.46596858 21.64149501 -8.89982553 18.03541031 -12 14 C-12 12 -12 12 -9.9375 9.8125 C-8.95946911 8.87381518 -7.98014597 7.9364761 -7 7 C-5.72653827 5.73180051 -4.45575297 4.46090847 -3.1875 3.1875 C-2.125 2.125 -1.0625 1.0625 0 0 Z " fill="#869788" transform="translate(530,661)"/>
<path d="M0 0 C6.12892523 0.32257501 11.19327716 3.36101209 16 7 C17.35310628 11.05931885 15.96405531 13.66963724 14.5546875 17.51953125 C14.27725204 18.30164474 13.99981659 19.08375824 13.713974 19.88957214 C13.10091337 21.61596301 12.48386195 23.3409404 11.86343384 25.06469727 C10.14025633 29.8550552 8.44814875 34.65637891 6.75390625 39.45703125 C6.38325546 40.5053714 6.01260468 41.55371155 5.63072205 42.63381958 C-0.16745846 59.08281166 -5.6903639 75.62717209 -11.26223469 92.15381336 C-11.93074526 94.13606194 -12.59974701 96.11814406 -13.26890564 98.10017395 C-14.08996902 100.53284108 -14.90985366 102.96590653 -15.72828674 105.39945984 C-18.05752491 112.30247363 -20.47583607 119.1658027 -23 126 C-28.52414861 125.53965428 -33.44047009 124.30172855 -38 121 C-39.48433474 118.73305628 -40.07969701 117.56285302 -39.69504356 114.84627247 C-39.43291887 114.06521987 -39.17079418 113.28416727 -38.90072632 112.47944641 C-38.60634674 111.57822556 -38.31196716 110.6770047 -38.00866699 109.74847412 C-37.67113403 108.76711487 -37.33360107 107.78575562 -36.98583984 106.7746582 C-36.64142853 105.73514511 -36.29701721 104.69563202 -35.94216919 103.62461853 C-34.79618942 100.17833087 -33.62886157 96.73968808 -32.4609375 93.30078125 C-31.65935296 90.90706688 -30.85896426 88.51295174 -30.0597229 86.11845398 C-28.37879774 81.09254752 -26.68854204 76.06993183 -24.98974609 71.05004883 C-22.8171899 64.63005993 -20.66244578 58.20424674 -18.5136013 51.77628803 C-16.46026799 45.63663947 -14.39836275 39.49988033 -12.3359375 33.36328125 C-11.7494449 31.61453925 -11.7494449 31.61453925 -11.15110397 29.83046913 C-10.03561127 26.50947637 -8.91403475 23.19060312 -7.79052734 19.87231445 C-7.30244598 18.41545731 -7.30244598 18.41545731 -6.80450439 16.9291687 C-4.83331279 11.13321749 -2.59299781 5.54621219 0 0 Z " fill="#869788" transform="translate(480,655)"/>
<path d="M0 0 C3.66092051 2.06216409 6.79391612 4.89931482 8 9 C8.48365156 14.22343681 7.92346277 17.61480585 5 22 C1.36506991 25.45318359 -1.61704433 26.31702533 -6.5 26.5625 C-10.21164402 26.42615389 -12.6284781 26.07847438 -15.5625 23.75 C-19.36993704 19.45443001 -20.47456341 16.94396795 -20.3203125 11.02734375 C-19.6464408 6.76222897 -17.08355978 3.9522192 -13.9375 1.1875 C-9.33137631 -1.63560807 -5.07640555 -1.27343279 0 0 Z " fill="#F4F6F3" transform="translate(368,223)"/>
<path d="M0 0 C3.65671794 2.05979682 6.82742347 4.89598214 8 9 C8.46225901 13.77667642 8.49973779 16.01903323 6.3125 20.3125 C3.21050395 23.91752243 1.25398095 25.68981914 -3.5546875 26.3515625 C-8.1540812 26.58838765 -11.84924632 26.71328619 -15.5625 23.75 C-18.80396181 20.09296616 -19.8607622 18.50376824 -20.3125 13.625 C-19.85787725 8.35137613 -18.3859881 5.28203899 -14.5 1.6875 C-9.67402031 -1.57003629 -5.48445284 -1.37579278 0 0 Z " fill="#F4F6F2" transform="translate(315,223)"/>
<path d="M0 0 C3.28133541 2.11463838 4.93976587 3.35514469 6.8125 6.8125 C7.47206843 11.73332513 7.46207582 16.17146635 5.625 20.8125 C1.87315266 24.95246947 -1.08881543 26.034564 -6.625 26.3125 C-10.37026761 26.21154939 -12.79285952 25.9223855 -15.75 23.5625 C-19.69165056 19.11550963 -20.65419623 15.92195686 -20.5 10.0625 C-20.00157003 6.47380423 -18.5906417 4.46860399 -16.1875 1.8125 C-10.79831585 -1.78028944 -6.06769354 -2.26051328 0 0 Z " fill="#F4F6F3" transform="translate(262.1875,223.1875)"/>
</svg>
