<svg width="384px" height="384px" viewBox="0 0 384 384" version="1.1" xmlns="http://www.w3.org/2000/svg" xmlns:xlink="http://www.w3.org/1999/xlink">
    <defs></defs>
    <g id="Page-1" stroke="none" stroke-width="1" fill="none" fill-rule="evenodd">
        <g id="Group">
            <path d="M192,384 C85.961328,384 0,298.038672 0,192 C0,85.961328 85.961328,0 192,0 C298.038672,0 384,85.961328 384,192 C384,298.038672 298.038672,384 192,384 Z M192.75,366 C288.847546,366 366.75,288.097546 366.75,192 C366.75,95.9024535 288.847546,18 192.75,18 C96.6524535,18 18.75,95.9024535 18.75,192 C18.75,288.097546 96.6524535,366 192.75,366 Z" id="Combined-Shape" fill="#1483B5"></path>
            <rect id="Rectangle" fill="#626262" x="192" y="110.25" width="12" height="99.75"></rect>
            <rect id="Rectangle" fill="#626262" transform="translate(262.500000, 204.000000) rotate(90.000000) translate(-262.500000, -204.000000) " x="256.5" y="133.5" width="12" height="141"></rect>
        </g>
    </g>
</svg>
